<!DOCTYPE svg PUBLIC "-//W3C//DTD SVG 1.1//EN" "http://www.w3.org/Graphics/SVG/1.1/DTD/svg11.dtd">
<svg xmlns="http://www.w3.org/2000/svg" xmlns:xlink="http://www.w3.org/1999/xlink" width="81px" height="91px" version="1.1"><defs/><g transform="translate(0.5,0.5)"><path d="M 31.56 81.49 L 26.86 69.64" fill="none" stroke="#000000" stroke-miterlimit="10" pointer-events="none"/><ellipse cx="35" cy="85" rx="5" ry="5" fill="none" stroke="#000000" pointer-events="none"/><path d="M 9.93 54.98 L 20.85 62.21" fill="none" stroke="#000000" stroke-miterlimit="10" pointer-events="none"/><ellipse cx="5" cy="55" rx="5" ry="5" fill="none" stroke="#000000" pointer-events="none"/><path d="M 75.05 40.09 L 67.79 29.15" fill="none" stroke="#000000" stroke-miterlimit="10" pointer-events="none"/><ellipse cx="75" cy="45" rx="5" ry="5" fill="none" stroke="#000000" pointer-events="none"/><path d="M 15.05 30.09 L 15.05 20.09" fill="none" stroke="#000000" stroke-miterlimit="10" pointer-events="none"/><path d="M 11.56 31.49 L 8.53 28.47" fill="none" stroke="#000000" stroke-miterlimit="10" pointer-events="none"/><path d="M 15.05 40.09 L 23.17 60.35" fill="none" stroke="#000000" stroke-miterlimit="10" pointer-events="none"/><path d="M 19.93 34.98 L 50.19 43.62" fill="none" stroke="#000000" stroke-miterlimit="10" pointer-events="none"/><ellipse cx="15" cy="35" rx="5" ry="5" fill="none" stroke="#000000" pointer-events="none"/><path d="M 31.56 8.47 L 17.64 30.76" fill="none" stroke="#000000" stroke-miterlimit="10" pointer-events="none"/><ellipse cx="35" cy="5" rx="5" ry="5" fill="none" stroke="#000000" pointer-events="none"/><path d="M 28.53 61.49 L 50.75 47.63" fill="none" stroke="#000000" stroke-miterlimit="10" pointer-events="none"/><ellipse cx="25" cy="65" rx="5" ry="5" fill="none" stroke="#000000" pointer-events="none"/><path d="M 18.53 71.49 L 21.46 68.54" fill="none" stroke="#000000" stroke-miterlimit="10" pointer-events="none"/><path d="M 18.53 78.47 L 30.36 83.14" fill="none" stroke="#000000" stroke-miterlimit="10" pointer-events="none"/><ellipse cx="15" cy="75" rx="5" ry="5" fill="none" stroke="#000000" pointer-events="none"/><path d="M 51.56 78.47 L 39.65 83.17" fill="none" stroke="#000000" stroke-miterlimit="10" pointer-events="none"/><ellipse cx="55" cy="75" rx="5" ry="5" fill="none" stroke="#000000" pointer-events="none"/><path d="M 39.93 64.98 L 29.93 64.98" fill="none" stroke="#000000" stroke-miterlimit="10" pointer-events="none"/><path d="M 48.53 68.47 L 51.53 71.4" fill="none" stroke="#000000" stroke-miterlimit="10" pointer-events="none"/><ellipse cx="45" cy="65" rx="5" ry="5" fill="none" stroke="#000000" pointer-events="none"/><path d="M 61.56 28.47 L 56.83 40.35" fill="none" stroke="#000000" stroke-miterlimit="10" pointer-events="none"/><ellipse cx="65" cy="25" rx="5" ry="5" fill="none" stroke="#000000" pointer-events="none"/><path d="M 59.93 44.98 L 69.93 44.98" fill="none" stroke="#000000" stroke-miterlimit="10" pointer-events="none"/><ellipse cx="55" cy="45" rx="5" ry="5" fill="none" stroke="#000000" pointer-events="none"/><path d="M 8.53 21.49 L 11.46 18.54" fill="none" stroke="#000000" stroke-miterlimit="10" pointer-events="none"/><ellipse cx="5" cy="25" rx="5" ry="5" fill="none" stroke="#000000" pointer-events="none"/><ellipse cx="15" cy="15" rx="5" ry="5" fill="none" stroke="#000000" pointer-events="none"/></g></svg>